<?xml version="1.0" encoding="utf-8"?>
<!-- Generator: Adobe Illustrator 21.1.0, SVG Export Plug-In . SVG Version: 6.00 Build 0)  -->
<svg version="1.1" xmlns="http://www.w3.org/2000/svg" xmlns:xlink="http://www.w3.org/1999/xlink" x="0px" y="0px"
	 viewBox="0 0 300 300" style="enable-background:new 0 0 300 300;" xml:space="preserve">
<g id="Layer_2">
</g>
<g id="Layer_1">
	<g>
		<path d="M30.7,158.3H15.5v-38.2h15.2c5.9,0,13,2.1,13,9.8c0,4.2-2.5,7-6.3,8.3v0.1c4.4,0.8,7.8,3.9,7.8,8.9
			C45.3,155.5,38,158.3,30.7,158.3z M28.9,127.4h-4.5v7.9h5c3.5,0,5.5-1.5,5.5-4.2C34.8,128.6,32.8,127.4,28.9,127.4z M29.5,142.1
			h-5.1v8.7h5.2c2.9,0,6.5-0.8,6.5-4.5C36,143.2,33.5,142.1,29.5,142.1z"/>
		<path d="M68,148.8c-5.3,0-9.6-4.3-9.6-9.6s4.3-9.6,9.6-9.6c5.3,0,9.6,4.3,9.6,9.6S73.3,148.8,68,148.8z"/>
		<path d="M92.4,158.3v-38.2h25.7v7.8h-16.8v7.2h15.9v7.4h-15.9v7.9h17.8v7.9H92.4z"/>
		<path d="M141.8,148.8c-5.3,0-9.6-4.3-9.6-9.6s4.3-9.6,9.6-9.6c5.3,0,9.6,4.3,9.6,9.6S147.1,148.8,141.8,148.8z"/>
		<path d="M190.5,158.3l-15.4-25H175l0.2,25h-9v-38.2h10.5l15.3,24.9h0.2l-0.2-24.9h9v38.2H190.5z"/>
		<path d="M225.5,148.8c-5.3,0-9.6-4.3-9.6-9.6s4.3-9.6,9.6-9.6s9.6,4.3,9.6,9.6S230.8,148.8,225.5,148.8z"/>
		<path d="M273.3,158.3l-14.2-17.6H259v17.6h-9.1v-38.2h9.1v15.6h0.2l13.7-15.6h11.6l-16.5,17.6l17.4,20.6H273.3z"/>
	</g>
	<g>
		<path d="M39.2,190.2v-8.7c0-1.8-0.4-3.4-2.3-3.4c-1.8,0-2.7,1.7-2.7,3.5v8.6H29v-9.1c0-1.8-0.7-3-2.3-3c-1.7,0-2.6,1.5-2.6,3.4
			v8.6h-5.3v-15.9H24v2.2H24c0.7-1.3,2.4-2.7,4.8-2.7c2.3,0,3.9,1,4.8,2.7c1.1-1.7,2.7-2.7,5.1-2.7c4.3,0,5.8,3.5,5.8,6.5v9.9H39.2z
			"/>
		<path d="M70.3,183.7H58.7c0.2,1.8,1.9,3,3.8,3c1.7,0,2.8-0.7,3.5-1.7l3.6,2.3c-1.5,2.2-4,3.4-7.2,3.4c-4.8,0-8.8-3-8.8-8.4
			c0-5.2,3.8-8.5,8.6-8.5c4.7,0,8,3.2,8,8.7C70.3,182.8,70.3,183.3,70.3,183.7z M65.5,180.4c0-1.7-1.1-3-3.1-3c-2,0-3.5,1.4-3.6,3
			H65.5z"/>
		<path d="M91.7,190.2v-2.1h-0.1c-1,1.6-3.1,2.5-5.2,2.5c-4.8,0-7.6-4-7.6-8.5c0-4.4,2.9-8.4,7.5-8.4c2.3,0,4,1.1,4.9,2.1h0.1v-10
			h5.2v24.2H91.7z M87.7,178.1c-2.5,0-3.8,2-3.8,4.1c0,2.1,1.3,4.1,3.8,4.1c2.4,0,3.8-2,3.8-4.1C91.5,180.2,90.1,178.1,87.7,178.1z"
			/>
		<path d="M109.5,172c-1.7,0-3-1.3-3-2.9c0-1.5,1.3-2.9,3-2.9c1.7,0,3,1.3,3,2.9C112.5,170.8,111.2,172,109.5,172z M106.9,190.2
			v-15.9h5.2v15.9H106.9z"/>
		<path d="M122.1,176.4c1.9-1.8,4.5-2.7,7.1-2.7c5.3,0,7.3,2.6,7.3,8.4v8h-4.8v-1.7h-0.1c-0.8,1.3-2.6,2.1-4.5,2.1
			c-2.5,0-5.8-1.2-5.8-5c0-4.6,5.6-5.4,10.2-5.4V180c0-1.6-1.2-2.3-2.9-2.3c-1.5,0-3,0.7-3.9,1.6L122.1,176.4z M131.8,183.2h-0.7
			c-2.3,0-4.9,0.3-4.9,2.2c0,1.2,1.2,1.6,2.3,1.6c2.1,0,3.3-1.3,3.3-3.3V183.2z"/>
		<path d="M170,179c-0.8-0.8-2-1.4-3.3-1.4c-1,0-2,0.4-2,1.3c0,0.9,0.9,1.2,2.9,1.6c2.4,0.5,5.1,1.8,5.1,4.9c0,4-3.6,5.4-6.8,5.4
			c-2.6,0-5.3-0.9-6.9-2.5l2.9-3.1c0.9,1,2.4,1.8,3.9,1.8c0.9,0,1.9-0.4,1.9-1.4c0-1-1-1.3-3.2-1.8c-2.2-0.5-4.6-1.6-4.6-4.6
			c0-3.8,3.6-5.3,6.6-5.3c2.4,0,4.8,0.8,6.4,2.2L170,179z"/>
		<path d="M197.6,183.7H186c0.2,1.8,1.9,3,3.8,3c1.7,0,2.8-0.7,3.5-1.7l3.6,2.3c-1.5,2.2-4,3.4-7.2,3.4c-4.8,0-8.8-3-8.8-8.4
			c0-5.2,3.8-8.5,8.6-8.5c4.7,0,8,3.2,8,8.7C197.6,182.8,197.6,183.3,197.6,183.7z M192.8,180.4c0-1.7-1.1-3-3.1-3
			c-2,0-3.5,1.4-3.6,3H192.8z"/>
		<path d="M217.3,178.5c-0.5-0.1-0.9-0.2-1.3-0.2c-2.8,0-3.7,2.3-3.7,3.6v8.2H207v-15.9h5.1v2.3h0.1c0.8-1.6,2.4-2.8,4.3-2.8
			c0.4,0,0.9,0,1.1,0.1L217.3,178.5z"/>
		<path d="M235.6,190.2h-5.7l-6.3-15.9h5.8l3.4,10.3h0.1l3.4-10.3h5.6L235.6,190.2z"/>
		<path d="M265.7,183.7h-11.6c0.2,1.8,1.9,3,3.8,3c1.7,0,2.8-0.7,3.5-1.7l3.6,2.3c-1.5,2.2-4,3.4-7.2,3.4c-4.8,0-8.8-3-8.8-8.4
			c0-5.2,3.8-8.5,8.6-8.5c4.7,0,8,3.2,8,8.7C265.7,182.8,265.7,183.3,265.7,183.7z M260.9,180.4c0-1.7-1.1-3-3.1-3
			c-2,0-3.5,1.4-3.6,3H260.9z"/>
		<path d="M285.4,178.5c-0.5-0.1-0.9-0.2-1.3-0.2c-2.8,0-3.7,2.3-3.7,3.6v8.2h-5.2v-15.9h5.1v2.3h0.1c0.8-1.6,2.4-2.8,4.3-2.8
			c0.4,0,0.9,0,1.1,0.1L285.4,178.5z"/>
	</g>
</g>
</svg>
