<?xml version="1.0" encoding="utf-8"?>
<!-- Generator: Adobe Illustrator 21.1.0, SVG Export Plug-In . SVG Version: 6.00 Build 0)  -->
<svg version="1.1" id="Layer_1" xmlns="http://www.w3.org/2000/svg" xmlns:xlink="http://www.w3.org/1999/xlink" x="0px" y="0px"
	 viewBox="0 0 300 300" style="enable-background:new 0 0 300 300;" xml:space="preserve">
<style type="text/css">
	.st0{enable-background:new    ;}
	.st1{fill:#FF9900;}
	.st2{fill:none;}
</style>
<g id="Layer_1_1_">
	<g class="st0">
		<path d="M30.7,260.3H15.5v-38.2h15.2c5.9,0,13,2.1,13,9.8c0,4.2-2.5,7-6.3,8.3v0.1c4.4,0.8,7.8,3.9,7.8,8.9
			C45.3,257.5,38,260.3,30.7,260.3z M28.9,229.4h-4.5v7.9h5c3.5,0,5.5-1.5,5.5-4.2C34.8,230.6,32.8,229.4,28.9,229.4z M29.5,244.1
			h-5.1v8.7h5.2c2.9,0,6.5-0.8,6.5-4.5C36,245.2,33.5,244.1,29.5,244.1z"/>
		<path d="M68.5,250.8c-5.3,0-9.6-4.3-9.6-9.6s4.3-9.6,9.6-9.6s9.6,4.3,9.6,9.6S73.8,250.8,68.5,250.8z"/>
		<path d="M93.5,260.3v-38.2h25.7v7.8h-16.8v7.2h15.9v7.4h-15.9v7.9h17.8v7.9H93.5z"/>
		<path d="M143.4,250.8c-5.3,0-9.6-4.3-9.6-9.6s4.3-9.6,9.6-9.6s9.6,4.3,9.6,9.6S148.7,250.8,143.4,250.8z"/>
		<path d="M192.7,260.3l-15.4-25h-0.2l0.2,25h-9v-38.2h10.5l15.3,24.9h0.2l-0.2-24.9h9v38.2H192.7z"/>
		<path d="M228.2,250.8c-5.3,0-9.6-4.3-9.6-9.6s4.3-9.6,9.6-9.6s9.6,4.3,9.6,9.6S233.5,250.8,228.2,250.8z"/>
		<path d="M276.6,260.3l-14.2-17.6h-0.1v17.6h-9.1v-38.2h9.1v15.6h0.2l13.7-15.6h11.6l-16.5,17.6l17.4,20.6H276.6z"/>
	</g>
	<polygon class="st1" points="146.8,13.3 146.8,85.3 192.8,114.7 122.8,159.3 122.8,135.3 122.8,70 122.8,35.3 45.8,112.3 
		145.8,212.3 245.8,112.3 	"/>
	<rect x="16.8" y="268" class="st2" width="274" height="54"/>
	<g class="st0">
		<path d="M39.2,292.2v-8.7c0-1.8-0.4-3.4-2.3-3.4c-1.8,0-2.7,1.7-2.7,3.5v8.6H29v-9.1c0-1.8-0.7-3-2.3-3c-1.7,0-2.6,1.5-2.6,3.4
			v8.6h-5.3v-15.9H24v2.2l0,0c0.7-1.3,2.4-2.7,4.8-2.7c2.3,0,3.9,1,4.8,2.7c1.1-1.7,2.7-2.7,5.1-2.7c4.3,0,5.8,3.5,5.8,6.5v9.9h-5.3
			V292.2z"/>
		<path d="M70.2,285.7H58.6c0.2,1.8,1.9,3,3.8,3c1.7,0,2.8-0.7,3.5-1.7l3.6,2.3c-1.5,2.2-4,3.4-7.2,3.4c-4.8,0-8.8-3-8.8-8.4
			c0-5.2,3.8-8.5,8.6-8.5c4.7,0,8,3.2,8,8.7C70.2,284.8,70.2,285.3,70.2,285.7z M65.4,282.4c0-1.7-1.1-3-3.1-3s-3.5,1.4-3.6,3H65.4z
			"/>
		<path d="M91.5,292.2v-2.1h-0.1c-1,1.6-3.1,2.5-5.2,2.5c-4.8,0-7.6-4-7.6-8.5c0-4.4,2.9-8.4,7.5-8.4c2.3,0,4,1.1,4.9,2.1h0.1v-10
			h5.2V292h-4.8V292.2z M87.5,280.1c-2.5,0-3.8,2-3.8,4.1s1.3,4.1,3.8,4.1c2.4,0,3.8-2,3.8-4.1C91.3,282.2,89.9,280.1,87.5,280.1z"
			/>
		<path d="M109.2,274c-1.7,0-3-1.3-3-2.9c0-1.5,1.3-2.9,3-2.9s3,1.3,3,2.9C112.2,272.8,110.9,274,109.2,274z M106.6,292.2v-15.9h5.2
			v15.9H106.6z"/>
		<path d="M121.7,278.4c1.9-1.8,4.5-2.7,7.1-2.7c5.3,0,7.3,2.6,7.3,8.4v8h-4.8v-1.7h-0.1c-0.8,1.3-2.6,2.1-4.5,2.1
			c-2.5,0-5.8-1.2-5.8-5c0-4.6,5.6-5.4,10.2-5.4V282c0-1.6-1.2-2.3-2.9-2.3c-1.5,0-3,0.7-3.9,1.6L121.7,278.4z M131.4,285.2h-0.7
			c-2.3,0-4.9,0.3-4.9,2.2c0,1.2,1.2,1.6,2.3,1.6c2.1,0,3.3-1.3,3.3-3.3V285.2z"/>
		<path d="M169.4,281c-0.8-0.8-2-1.4-3.3-1.4c-1,0-2,0.4-2,1.3s0.9,1.2,2.9,1.6c2.4,0.5,5.1,1.8,5.1,4.9c0,4-3.6,5.4-6.8,5.4
			c-2.6,0-5.3-0.9-6.9-2.5l2.9-3.1c0.9,1,2.4,1.8,3.9,1.8c0.9,0,1.9-0.4,1.9-1.4s-1-1.3-3.2-1.8s-4.6-1.6-4.6-4.6
			c0-3.8,3.6-5.3,6.6-5.3c2.4,0,4.8,0.8,6.4,2.2L169.4,281z"/>
		<path d="M196.9,285.7h-11.6c0.2,1.8,1.9,3,3.8,3c1.7,0,2.8-0.7,3.5-1.7l3.6,2.3c-1.5,2.2-4,3.4-7.2,3.4c-4.8,0-8.8-3-8.8-8.4
			c0-5.2,3.8-8.5,8.6-8.5c4.7,0,8,3.2,8,8.7C196.9,284.8,196.9,285.3,196.9,285.7z M192.1,282.4c0-1.7-1.1-3-3.1-3s-3.5,1.4-3.6,3
			H192.1z"/>
		<path d="M216.5,280.5c-0.5-0.1-0.9-0.2-1.3-0.2c-2.8,0-3.7,2.3-3.7,3.6v8.2h-5.2v-15.9h5.1v2.3h0.1c0.8-1.6,2.4-2.8,4.3-2.8
			c0.4,0,0.9,0,1.1,0.1L216.5,280.5z"/>
		<path d="M234.7,292.2H229l-6.3-15.9h5.8l3.4,10.3h0.1l3.4-10.3h5.6L234.7,292.2z"/>
		<path d="M264.8,285.7h-11.6c0.2,1.8,1.9,3,3.8,3c1.7,0,2.8-0.7,3.5-1.7l3.6,2.3c-1.5,2.2-4,3.4-7.2,3.4c-4.8,0-8.8-3-8.8-8.4
			c0-5.2,3.8-8.5,8.6-8.5c4.7,0,8,3.2,8,8.7C264.8,284.8,264.8,285.3,264.8,285.7z M260,282.4c0-1.7-1.1-3-3.1-3s-3.5,1.4-3.6,3H260
			z"/>
		<path d="M284.4,280.5c-0.5-0.1-0.9-0.2-1.3-0.2c-2.8,0-3.7,2.3-3.7,3.6v8.2H274v-15.9h5.1v2.3h0.1c0.8-1.6,2.4-2.8,4.3-2.8
			c0.4,0,0.9,0,1.1,0.1L284.4,280.5z"/>
	</g>
</g>
</svg>
