<?xml version="1.0" encoding="utf-8"?>
<!-- Generator: Adobe Illustrator 21.1.0, SVG Export Plug-In . SVG Version: 6.00 Build 0)  -->
<svg version="1.1" id="Layer_2" xmlns="http://www.w3.org/2000/svg" xmlns:xlink="http://www.w3.org/1999/xlink" x="0px" y="0px"
	 viewBox="0 0 100 100" style="enable-background:new 0 0 100 100;" xml:space="preserve">
<style type="text/css">
	.st0{fill:#7E7E7E;}
</style>
<g>
	<path class="st0" d="M0,0v100h26V0H0z M19,94H6V81h13V94z M19,70H6V57h13V70z M19,44H6V31h13V44z M19,18H6V5h13V18z"/>
</g>
<g>
	<path class="st0" d="M74,0v100h26V0H74z M93,94H80V81h13V94z M93,70H80V57h13V70z M93,44H80V31h13V44z M93,18H80V5h13V18z"/>
</g>
<rect x="25" y="17" class="st0" width="50" height="12"/>
<rect x="25" y="67" class="st0" width="50" height="12"/>
</svg>
