<?xml version="1.0" encoding="utf-8"?>
<!-- Generator: Adobe Illustrator 21.1.0, SVG Export Plug-In . SVG Version: 6.00 Build 0)  -->
<svg version="1.1" xmlns="http://www.w3.org/2000/svg" xmlns:xlink="http://www.w3.org/1999/xlink" x="0px" y="0px"
	 viewBox="0 0 100 100" style="enable-background:new 0 0 100 100;" xml:space="preserve">
<style type="text/css">
	.st0{display:none;opacity:0.35;}
	.st1{display:inline;}
	.st2{fill:#7E7E7E;}
	.st3{display:inline;fill:#7E7E7E;}
	.st4{display:none;}
</style>
<g id="Layer_2" class="st0">
	<g class="st1">
		<path class="st2" d="M0,0v100h26V0H0z M19,94H6V81h13V94z M19,70H6V57h13V70z M19,44H6V31h13V44z M19,18H6V5h13V18z"/>
	</g>
	<g class="st1">
		<path class="st2" d="M74,0v100h26V0H74z M93,94H80V81h13V94z M93,70H80V57h13V70z M93,44H80V31h13V44z M93,18H80V5h13V18z"/>
	</g>
	<rect x="25" y="17" class="st3" width="50" height="12"/>
	<rect x="25" y="67" class="st3" width="50" height="12"/>
</g>
<g id="Layer_3" class="st4">
	<polygon class="st3" points="15.2,97 8.3,97 10.3,84 15.2,84 	"/>
	<polygon class="st3" points="92.7,97 85.8,97 85.8,84 90.7,84 	"/>
	<path class="st3" d="M0.2,20v64h99.6V20H0.2z M85.2,81.6h-2.5v-2.5h2.5V81.6z M89.6,81.6h-2.5v-2.5h2.5V81.6z M94,81.6h-2.5v-2.5
		H94V81.6z M91.4,75H8.6V28.7h82.7V75z"/>
	<polygon class="st3" points="30,1 30,1 40,20 45,20 	"/>
	<polygon class="st3" points="65,0 65,0 55,20 50,20 	"/>
</g>
<g id="Layer_4">
	<polygon class="st2" points="28,90 0,100 0,53 28,64 	"/>
	<rect x="14" y="19" class="st2" width="14" height="55"/>
	<rect x="72" y="19" class="st2" width="14" height="55"/>
	<polygon class="st2" points="72,90 100,100 100,53 72,64 	"/>
	<polygon class="st2" points="72,24 86,19 49.7,0.3 14,19 28,24 	"/>
</g>
</svg>
