<?xml version="1.0" encoding="utf-8"?>
<!-- Generator: Adobe Illustrator 21.1.0, SVG Export Plug-In . SVG Version: 6.00 Build 0)  -->
<svg version="1.1" id="Layer_1" xmlns="http://www.w3.org/2000/svg" xmlns:xlink="http://www.w3.org/1999/xlink" x="0px" y="0px"
	 viewBox="0 0 100 100" style="enable-background:new 0 0 100 100;" xml:space="preserve">
<style type="text/css">
	.st0{display:none;opacity:0.35;}
	.st1{display:inline;}
	.st2{fill:#7E7E7E;}
	.st3{display:inline;fill:#7E7E7E;}
	.st4{display:none;}
</style>
<g id="Layer_2" class="st0">
	<g class="st1">
		<path class="st2" d="M0,0v100h26V0H0z M19,94H6V81h13V94z M19,70H6V57h13V70z M19,44H6V31h13V44z M19,18H6V5h13V18z"/>
	</g>
	<g class="st1">
		<path class="st2" d="M74,0v100h26V0H74z M93,94H80V81h13V94z M93,70H80V57h13V70z M93,44H80V31h13V44z M93,18H80V5h13V18z"/>
	</g>
	<rect x="25" y="17" class="st3" width="50" height="12"/>
	<rect x="25" y="67" class="st3" width="50" height="12"/>
</g>
<g id="Layer_4" class="st4">
	<rect y="53" class="st3" width="28" height="47"/>
	<rect x="72" y="53" class="st3" width="28" height="47"/>
	<rect x="14" y="14" class="st3" width="14" height="39"/>
	<rect x="72" y="14" class="st3" width="14" height="39"/>
	<rect x="14" class="st3" width="72" height="14"/>
</g>
<rect y="16.5" class="st2" width="14" height="55"/>
<rect x="86" y="16.5" class="st2" width="14" height="55"/>
<rect y="9.5" class="st2" width="100" height="17.3"/>
<polygon class="st2" points="0,85.5 21.8,85.5 14,100.5 0,100.5 "/>
<polygon class="st2" points="77.3,85 100,85 100,100 85.4,100 "/>
<polygon class="st2" points="54.8,0 61.8,0 53.8,16.5 49.8,16.5 "/>
<polygon class="st2" points="48.8,16.5 44.8,16.5 36.8,0 43.8,0 "/>
<rect y="70.8" class="st2" width="100" height="17.3"/>
</svg>
